<svg xmlns="http://www.w3.org/2000/svg" viewBox="0 0 500 500"><g id="freepik--background-complete--inject-46"><rect x="416.78" y="398.49" width="33.12" height="0.25" style="fill:#ebebeb"></rect><rect x="322.53" y="401.21" width="8.69" height="0.25" style="fill:#ebebeb"></rect><rect x="396.59" y="389.21" width="19.19" height="0.25" style="fill:#ebebeb"></rect><rect x="52.46" y="390.89" width="43.19" height="0.25" style="fill:#ebebeb"></rect><rect x="104.56" y="390.89" width="6.33" height="0.25" style="fill:#ebebeb"></rect><rect x="131.47" y="395.11" width="93.68" height="0.25" style="fill:#ebebeb"></rect><path d="M238.4,337.8H45.3a5.71,5.71,0,0,1-5.71-5.71V60.66A5.71,5.71,0,0,1,45.3,55H238.4a5.71,5.71,0,0,1,5.71,5.71V332.09A5.71,5.71,0,0,1,238.4,337.8ZM45.3,55.2a5.47,5.47,0,0,0-5.46,5.46V332.09a5.47,5.47,0,0,0,5.46,5.46H238.4a5.47,5.47,0,0,0,5.46-5.46V60.66a5.47,5.47,0,0,0-5.46-5.46Z" style="fill:#ebebeb"></path><path d="M454.7,337.8H261.6a5.71,5.71,0,0,1-5.71-5.71V60.66A5.71,5.71,0,0,1,261.6,55H454.7a5.71,5.71,0,0,1,5.71,5.71V332.09A5.71,5.71,0,0,1,454.7,337.8ZM261.6,55.2a5.47,5.47,0,0,0-5.46,5.46V332.09a5.47,5.47,0,0,0,5.46,5.46H454.7a5.47,5.47,0,0,0,5.46-5.46V60.66a5.47,5.47,0,0,0-5.46-5.46Z" style="fill:#ebebeb"></path><rect y="382.4" width="500" height="0.25" style="fill:#ebebeb"></rect><path d="M115.78,215.78c-11.19,10.24-27-2.48-38.23,7.76l-4.32-21.26c11.19-10.24,27.05,2.48,38.24-7.76Q113.63,205.14,115.78,215.78Z" style="fill:#fafafa"></path><path d="M113.57,213.68l-3-14.58a1.09,1.09,0,0,1-1.83-.68c-9.85,5.43-22.31-2-32.16,3.38a2.77,2.77,0,0,1-1.17,2.58q1.47,7.29,3,14.57a1.09,1.09,0,0,1,1.83.68c9.85-5.42,22.31,2.05,32.16-3.38A2.72,2.72,0,0,1,113.57,213.68Z" style="fill:#f0f0f0"></path><path d="M93.28,207.72a.57.57,0,0,0,.23.35,1.73,1.73,0,0,0,.51.25c-.08-.37-.16-.75-.23-1.13a.69.69,0,0,0-.43.18A.4.4,0,0,0,93.28,207.72Z" style="fill:#fff"></path><path d="M95.14,209.78c.08.37.15.73.23,1.1a.63.63,0,0,0,.41-.17.34.34,0,0,0,.09-.33.58.58,0,0,0-.23-.34A2.09,2.09,0,0,0,95.14,209.78Z" style="fill:#fff"></path><path d="M93.3,203.06a4.44,4.44,0,0,0-5.08,5.56c.66,3.28,4,6,7.5,6.37a4.44,4.44,0,0,0,5.08-5.56C100.14,206.16,96.8,203.43,93.3,203.06Zm3.63,8.43a1.91,1.91,0,0,1-1.35.45l.18.89-.84-.08-.18-.87a5.93,5.93,0,0,1-1.24-.31,4.23,4.23,0,0,1-1-.51l.27-.94a3.83,3.83,0,0,0,.83.44,4.08,4.08,0,0,0,.93.27l-.27-1.33a8.63,8.63,0,0,1-1.08-.4,2.6,2.6,0,0,1-.8-.55,1.65,1.65,0,0,1-.45-.88,1.16,1.16,0,0,1,.28-1.1,1.91,1.91,0,0,1,1.36-.44l-.18-.89.85.08.18.87a4.85,4.85,0,0,1,1.81.64c-.07.31-.14.63-.22.94a4.83,4.83,0,0,0-1.38-.53l.28,1.36A9.05,9.05,0,0,1,96,209a2.73,2.73,0,0,1,.79.55,1.66,1.66,0,0,1,.45.87A1.14,1.14,0,0,1,96.93,211.49Z" style="fill:#fff"></path><path d="M118.07,211.67c-11.19,10.24-27-2.48-38.23,7.76l-4.32-21.26c11.19-10.24,27,2.48,38.23-7.76Z" style="fill:#fafafa"></path><path d="M115.86,209.57q-1.48-7.29-3-14.57a1.1,1.1,0,0,1-1.84-.68c-9.84,5.42-22.31-2-32.15,3.37a2.76,2.76,0,0,1-1.18,2.58q1.48,7.29,3,14.58a1.1,1.1,0,0,1,1.84.68c9.84-5.43,22.31,2,32.15-3.38A2.78,2.78,0,0,1,115.86,209.57Z" style="fill:#f0f0f0"></path><path d="M95.56,203.62a.63.63,0,0,0,.23.34,2.4,2.4,0,0,0,.51.26c-.07-.38-.15-.76-.23-1.14a.67.67,0,0,0-.43.19A.41.41,0,0,0,95.56,203.62Z" style="fill:#fff"></path><path d="M97.43,205.67c.08.37.15.74.22,1.1a.69.69,0,0,0,.42-.16.35.35,0,0,0,.08-.33.56.56,0,0,0-.22-.35A2.09,2.09,0,0,0,97.43,205.67Z" style="fill:#fff"></path><path d="M95.58,199a4.44,4.44,0,0,0-5.08,5.56c.67,3.27,4,6,7.51,6.36a4.44,4.44,0,0,0,5.08-5.55C102.42,202.05,99.09,199.32,95.58,199Zm3.64,8.42a1.94,1.94,0,0,1-1.35.45l.18.89-.85-.07c-.06-.29-.12-.58-.17-.88a5.24,5.24,0,0,1-1.24-.31,4,4,0,0,1-1-.51c.08-.31.17-.62.26-.94a4.08,4.08,0,0,0,.83.44,4.7,4.7,0,0,0,.93.28l-.27-1.34a10.73,10.73,0,0,1-1.08-.39,2.73,2.73,0,0,1-.79-.55,1.77,1.77,0,0,1-.46-.89,1.16,1.16,0,0,1,.28-1.09,1.89,1.89,0,0,1,1.37-.45l-.18-.89.84.08.18.87a5.09,5.09,0,0,1,1.82.64c-.07.31-.15.63-.22.95a4.59,4.59,0,0,0-1.38-.54l.27,1.36a9.16,9.16,0,0,1,1.07.39,2.78,2.78,0,0,1,.79.54,1.65,1.65,0,0,1,.45.88A1.15,1.15,0,0,1,99.22,207.38Z" style="fill:#fff"></path><rect x="135.33" y="227.21" width="20.79" height="154.96" style="fill:#f0f0f0"></rect><rect x="170.74" y="227.21" width="20.79" height="154.96" style="fill:#f0f0f0"></rect><rect x="66.04" y="280.05" width="20.79" height="102.13" style="fill:#f0f0f0"></rect><rect x="100.68" y="254.53" width="20.79" height="127.64" style="fill:#f0f0f0"></rect><rect x="239.26" y="280.05" width="20.79" height="102.13" style="fill:#f0f0f0"></rect><rect x="412.49" y="121.53" width="20.79" height="260.64" style="fill:#f0f0f0"></rect><rect x="273.91" y="227.21" width="20.79" height="154.96" style="fill:#f0f0f0"></rect><rect x="377.84" y="174.37" width="20.79" height="207.8" style="fill:#f0f0f0"></rect><rect x="343.2" y="201.7" width="20.79" height="180.47" style="fill:#f0f0f0"></rect><rect x="308.55" y="254.53" width="20.79" height="127.64" style="fill:#f0f0f0"></rect><rect x="204.44" y="174.37" width="20.79" height="207.8" style="fill:#f0f0f0"></rect><path d="M315.43,146.79c-14.34,13.13-34.66-3.18-49,10q-2.76-13.63-5.53-27.26c14.34-13.13,34.66,3.18,49-9.95Q312.66,133.15,315.43,146.79Z" style="fill:#fafafa"></path><path d="M312.59,144.09q-1.89-9.33-3.79-18.68a1.4,1.4,0,0,1-2.35-.87c-12.62,7-28.6-2.63-41.22,4.33a3.55,3.55,0,0,1-1.51,3.3q1.9,9.35,3.8,18.68a1.4,1.4,0,0,1,2.35.88c12.62-7,28.6,2.62,41.22-4.33A3.57,3.57,0,0,1,312.59,144.09Z" style="fill:#f0f0f0"></path><path d="M286.58,136.46a.75.75,0,0,0,.29.44,2.52,2.52,0,0,0,.66.33l-.3-1.46a.91.91,0,0,0-.55.24A.53.53,0,0,0,286.58,136.46Z" style="fill:#fff"></path><path d="M289,139.09c.1.47.19.95.29,1.42a.84.84,0,0,0,.53-.22.44.44,0,0,0,.11-.42.75.75,0,0,0-.29-.44A2.67,2.67,0,0,0,289,139.09Z" style="fill:#fff"></path><path d="M286.61,130.49c-4.49-.47-7.38,2.87-6.52,7.12s5.13,7.7,9.62,8.17,7.38-2.88,6.51-7.13S291.1,131,286.61,130.49Zm4.65,10.79a2.39,2.39,0,0,1-1.73.58l.24,1.15-1.09-.1c-.08-.37-.15-.75-.23-1.12a7.79,7.79,0,0,1-1.58-.4,6,6,0,0,1-1.29-.65c.12-.4.23-.81.35-1.21a5.07,5.07,0,0,0,1.06.57,6,6,0,0,0,1.19.35c-.11-.57-.23-1.14-.35-1.71a13.81,13.81,0,0,1-1.38-.51,3.6,3.6,0,0,1-1-.71,2.15,2.15,0,0,1-.58-1.13,1.45,1.45,0,0,1,.36-1.4,2.4,2.4,0,0,1,1.75-.58l-.24-1.14,1.09.1c.08.38.15.75.23,1.12a6.43,6.43,0,0,1,2.33.82c-.09.4-.19.81-.29,1.21a6.37,6.37,0,0,0-1.77-.68l.36,1.75a8.78,8.78,0,0,1,1.36.49,3.21,3.21,0,0,1,1,.7,2.09,2.09,0,0,1,.58,1.12A1.41,1.41,0,0,1,291.26,141.28Z" style="fill:#fff"></path><path d="M318.36,141.52c-14.34,13.13-34.66-3.18-49,9.95q-2.76-13.62-5.53-27.26c14.34-13.13,34.66,3.18,49-9.95Q315.59,127.89,318.36,141.52Z" style="fill:#fafafa"></path><path d="M315.53,138.83q-1.9-9.35-3.8-18.68a1.4,1.4,0,0,1-2.35-.88c-12.62,7-28.6-2.62-41.22,4.33a3.55,3.55,0,0,1-1.51,3.31q1.91,9.33,3.8,18.68a1.4,1.4,0,0,1,2.35.87c12.62-7,28.6,2.63,41.22-4.33A3.54,3.54,0,0,1,315.53,138.83Z" style="fill:#f0f0f0"></path><path d="M289.51,131.19a.72.72,0,0,0,.29.44,2,2,0,0,0,.66.33l-.3-1.45a.86.86,0,0,0-.55.24A.52.52,0,0,0,289.51,131.19Z" style="fill:#fff"></path><path d="M291.9,133.83c.1.47.2.94.29,1.41a.84.84,0,0,0,.53-.21.46.46,0,0,0,.11-.43.68.68,0,0,0-.29-.43A2.11,2.11,0,0,0,291.9,133.83Z" style="fill:#fff"></path><path d="M289.54,125.22c-4.49-.46-7.38,2.88-6.52,7.13s5.13,7.7,9.62,8.16,7.38-2.87,6.52-7.12S294,125.69,289.54,125.22Zm4.65,10.8a2.41,2.41,0,0,1-1.72.57c.07.39.15.77.23,1.15l-1.09-.1c-.07-.37-.15-.74-.23-1.11a7.2,7.2,0,0,1-1.58-.41,5.53,5.53,0,0,1-1.29-.65c.12-.4.23-.8.35-1.2a5.88,5.88,0,0,0,1.06.56,5.36,5.36,0,0,0,1.19.35c-.11-.57-.23-1.14-.35-1.71a10.69,10.69,0,0,1-1.38-.51,3.56,3.56,0,0,1-1-.7,2.23,2.23,0,0,1-.58-1.13,1.52,1.52,0,0,1,.36-1.41,2.4,2.4,0,0,1,1.75-.57c-.08-.38-.16-.76-.23-1.14l1.08.1c.08.37.15.74.23,1.12a6.54,6.54,0,0,1,2.33.81c-.09.41-.19.81-.28,1.22a6,6,0,0,0-1.78-.68l.36,1.74a11.51,11.51,0,0,1,1.36.49,3.21,3.21,0,0,1,1,.7,2.12,2.12,0,0,1,.58,1.12A1.44,1.44,0,0,1,294.19,136Z" style="fill:#fff"></path><path d="M412.2,108.81c-12.88,17.55-38.76,4.08-51.64,21.63q-6-14.35-12-28.72c12.89-17.55,38.76-4.08,51.65-21.63Z" style="fill:#fafafa"></path><path d="M408.5,106.47l-8.25-19.68a1.57,1.57,0,0,1-2.77-.45c-12.35,10.4-32,3.37-44.32,13.76a4,4,0,0,1-.93,4q4.13,9.84,8.24,19.69a1.57,1.57,0,0,1,2.78.44c12.34-10.39,32-3.37,44.32-13.76A3.94,3.94,0,0,1,408.5,106.47Z" style="fill:#f0f0f0"></path><path d="M378.26,103.77a.86.86,0,0,0,.42.42,2.78,2.78,0,0,0,.79.22l-.64-1.53a.93.93,0,0,0-.55.38A.57.57,0,0,0,378.26,103.77Z" style="fill:#fff"></path><path d="M381.46,106.14l.63,1.49a.9.9,0,0,0,.54-.35.48.48,0,0,0,0-.48.77.77,0,0,0-.41-.42A3,3,0,0,0,381.46,106.14Z" style="fill:#fff"></path><path d="M377,97.21c-5,.47-7.47,4.77-5.6,9.25s7.31,7.33,12.35,6.86,7.47-4.77,5.59-9.24S382,96.74,377,97.21Zm7.47,10.84a2.76,2.76,0,0,1-1.77,1c.16.4.33.81.5,1.21l-1.21.13c-.17-.4-.33-.79-.5-1.18a8.65,8.65,0,0,1-1.83-.1,6.39,6.39,0,0,1-1.55-.43c0-.47.08-.93.11-1.4a6.36,6.36,0,0,0,1.3.39,6.57,6.57,0,0,0,1.38.13l-.75-1.81a13.82,13.82,0,0,1-1.63-.25,3.87,3.87,0,0,1-1.28-.56,2.39,2.39,0,0,1-.88-1.11,1.65,1.65,0,0,1,.08-1.62,2.67,2.67,0,0,1,1.8-1l-.51-1.2,1.22-.12.49,1.17a7.36,7.36,0,0,1,2.74.39c0,.47,0,.93-.05,1.4a6.71,6.71,0,0,0-2.09-.36c.26.61.51,1.22.77,1.84a12,12,0,0,1,1.6.23,3.89,3.89,0,0,1,1.27.55,2.39,2.39,0,0,1,.88,1.11A1.62,1.62,0,0,1,384.46,108.05Z" style="fill:#fff"></path><path d="M414.27,102.39c-12.89,17.55-38.76,4.08-51.65,21.63l-12-28.72c12.88-17.55,38.76-4.08,51.65-21.63Z" style="fill:#fafafa"></path><path d="M410.56,100.05l-8.24-19.68a1.58,1.58,0,0,1-2.78-.45c-12.34,10.39-32,3.37-44.32,13.76a3.94,3.94,0,0,1-.93,4l8.25,19.68a1.57,1.57,0,0,1,2.77.45c12.35-10.39,32-3.37,44.32-13.76A4,4,0,0,1,410.56,100.05Z" style="fill:#f0f0f0"></path><path d="M380.33,97.35a.86.86,0,0,0,.42.42,2.69,2.69,0,0,0,.79.22c-.22-.51-.43-1-.64-1.53a1,1,0,0,0-.56.38A.57.57,0,0,0,380.33,97.35Z" style="fill:#fff"></path><path d="M383.53,99.72l.63,1.49a1,1,0,0,0,.54-.35.53.53,0,0,0,0-.49.84.84,0,0,0-.41-.42A3,3,0,0,0,383.53,99.72Z" style="fill:#fff"></path><path d="M379.06,90.79c-5,.47-7.48,4.77-5.6,9.25s7.31,7.33,12.34,6.86,7.47-4.77,5.6-9.25S384.09,90.32,379.06,90.79Zm7.47,10.84a2.76,2.76,0,0,1-1.78,1l.51,1.21L384,104l-.49-1.17a8.65,8.65,0,0,1-1.83-.1,6.39,6.39,0,0,1-1.55-.43c0-.47.07-.93.11-1.4a6.27,6.27,0,0,0,1.29.39,6.7,6.7,0,0,0,1.39.12c-.25-.6-.5-1.2-.76-1.8a12.13,12.13,0,0,1-1.63-.26,3.69,3.69,0,0,1-1.27-.55,2.48,2.48,0,0,1-.89-1.11A1.68,1.68,0,0,1,378.5,96a2.7,2.7,0,0,1,1.79-1c-.16-.4-.33-.8-.5-1.2l1.22-.13c.16.4.33.79.49,1.18a7.36,7.36,0,0,1,2.74.39c0,.47,0,.93-.05,1.4a6.43,6.43,0,0,0-2.09-.36c.25.61.51,1.22.77,1.83a13.73,13.73,0,0,1,1.6.24,3.89,3.89,0,0,1,1.27.55,2.48,2.48,0,0,1,.88,1.1A1.66,1.66,0,0,1,386.53,101.63Z" style="fill:#fff"></path><path d="M129.07,140.56c-20,7.26-33.69-17.72-53.67-10.46q2.89-14.92,5.81-29.85C101.2,93,114.9,118,134.88,110.7Z" style="fill:#fafafa"></path><path d="M127.33,136.65l4-20.46a1.53,1.53,0,0,1-2-1.87c-15.66,1.75-27.8-14.61-43.46-12.87a3.87,3.87,0,0,1-2.9,2.71l-4,20.46a1.54,1.54,0,0,1,2,1.87c15.66-1.75,27.79,14.61,43.45,12.87A3.87,3.87,0,0,1,127.33,136.65Z" style="fill:#f0f0f0"></path><path d="M104.25,118.05a.79.79,0,0,0,.11.57,2.68,2.68,0,0,0,.52.61c.1-.53.21-1.06.31-1.6a.94.94,0,0,0-.65,0A.53.53,0,0,0,104.25,118.05Z" style="fill:#fff"></path><path d="M105.56,121.71l-.3,1.55a.91.91,0,0,0,.63,0,.51.51,0,0,0,.28-.38.83.83,0,0,0-.1-.57A3.15,3.15,0,0,0,105.56,121.71Z" style="fill:#fff"></path><path d="M106.77,112c-4.34-2.35-8.65-.18-9.56,4.47s2,9.93,6.3,12.28,8.65.18,9.56-4.48S111.11,114.38,106.77,112Zm.19,12.85a2.62,2.62,0,0,1-2-.14l-.24,1.26-1.06-.55.24-1.23a7.91,7.91,0,0,1-1.44-1.07,6.18,6.18,0,0,1-1-1.19l.85-1.08a5.54,5.54,0,0,0,.84,1,5.93,5.93,0,0,0,1,.85c.13-.62.25-1.25.37-1.87a13.54,13.54,0,0,1-1.19-1.09,3.82,3.82,0,0,1-.73-1.14,2.41,2.41,0,0,1-.11-1.39,1.62,1.62,0,0,1,1-1.27,2.66,2.66,0,0,1,2,.15l.24-1.25,1.06.56-.24,1.22a7.32,7.32,0,0,1,2,1.81l-.8,1.1a6.46,6.46,0,0,0-1.51-1.42c-.12.63-.24,1.27-.37,1.9a13.22,13.22,0,0,1,1.18,1.07,3.63,3.63,0,0,1,.72,1.13,2.26,2.26,0,0,1,.12,1.37A1.56,1.56,0,0,1,107,124.88Z" style="fill:#fff"></path><path d="M134.23,136.46c-20,7.27-33.69-17.71-53.67-10.45l5.82-29.85c20-7.26,33.68,17.71,53.67,10.45Z" style="fill:#fafafa"></path><path d="M132.49,132.56l4-20.46a1.53,1.53,0,0,1-2-1.87C118.81,112,106.68,95.61,91,97.36a3.9,3.9,0,0,1-2.91,2.71q-2,10.23-4,20.46a1.53,1.53,0,0,1,2,1.86c15.66-1.74,27.79,14.62,43.45,12.87A3.87,3.87,0,0,1,132.49,132.56Z" style="fill:#f0f0f0"></path><path d="M109.41,114a.79.79,0,0,0,.11.57,3,3,0,0,0,.52.61c.11-.54.21-1.07.31-1.6a.94.94,0,0,0-.65,0A.55.55,0,0,0,109.41,114Z" style="fill:#fff"></path><path d="M110.72,117.62l-.3,1.55a1,1,0,0,0,.63,0,.52.52,0,0,0,.29-.39.83.83,0,0,0-.11-.56A2.88,2.88,0,0,0,110.72,117.62Z" style="fill:#fff"></path><path d="M111.93,107.94c-4.34-2.35-8.65-.18-9.56,4.47s2,9.92,6.3,12.27,8.66.18,9.56-4.47S116.28,110.29,111.93,107.94Zm.19,12.85a2.67,2.67,0,0,1-2-.14l-.24,1.26-1.06-.56.24-1.22a8.2,8.2,0,0,1-1.43-1.07,6,6,0,0,1-1-1.2l.85-1.07a6.49,6.49,0,0,0,.84,1,6.08,6.08,0,0,0,1.06.85l.36-1.88a11.93,11.93,0,0,1-1.18-1.09,3.61,3.61,0,0,1-.74-1.14,2.37,2.37,0,0,1-.11-1.38,1.62,1.62,0,0,1,1-1.27,2.59,2.59,0,0,1,2,.15l.24-1.25,1,.56c-.07.41-.15.81-.23,1.22a7.09,7.09,0,0,1,2,1.8l-.8,1.11a6.91,6.91,0,0,0-1.5-1.43c-.13.64-.25,1.28-.37,1.91a10.64,10.64,0,0,1,1.17,1.07,3.72,3.72,0,0,1,.73,1.13,2.43,2.43,0,0,1,.12,1.37A1.6,1.6,0,0,1,112.12,120.79Z" style="fill:#fff"></path></g><g id="freepik--Shadow--inject-46"><ellipse id="freepik--path--inject-46" cx="250" cy="415.69" rx="193.89" ry="11.32" style="fill:#f5f5f5"></ellipse></g><g id="freepik--Device--inject-46"><path d="M364.82,403.17l-.18,0a29.23,29.23,0,0,1-22.74-28.4V302.35H320.7v72.38A29.22,29.22,0,0,1,298,403.13l-.18,0c-3.23.77-8.7,2.66-14,4.61a2.92,2.92,0,0,0,1,5.66h93a2.92,2.92,0,0,0,1-5.66C373.52,405.83,368.05,403.94,364.82,403.17Z" style="fill:#263238"></path><path d="M364.82,403.17l-.18,0a29.23,29.23,0,0,1-22.74-28.4V302.35H320.7v72.38A29.22,29.22,0,0,1,298,403.13l-.18,0c-3.23.77-8.7,2.66-14,4.61a2.92,2.92,0,0,0,1,5.66h93a2.92,2.92,0,0,0,1-5.66C373.52,405.83,368.05,403.94,364.82,403.17Z" style="fill:#fff;opacity:0.2"></path><path d="M364.82,403.17l-.18,0a29.23,29.23,0,0,1-22.74-28.4V302.35H320.7v10.4h7.78a8.45,8.45,0,0,1,8.45,8.45v51.47a37.39,37.39,0,0,0,11,26.46l14.31,14.31h15.62a2.92,2.92,0,0,0,1-5.66C373.52,405.83,368.05,403.94,364.82,403.17Z" style="opacity:0.4"></path><path d="M239.37,306.8H407.79a6.85,6.85,0,0,0,6.69-6.16l10.65-121.7a5.55,5.55,0,0,0-5.62-6.16H251.1a6.85,6.85,0,0,0-6.7,6.16l-10.65,121.7A5.55,5.55,0,0,0,239.37,306.8Z" style="fill:#263238"></path><g style="opacity:0.5"><path d="M239.37,306.8H407.79a6.85,6.85,0,0,0,6.69-6.16l10.65-121.7a5.55,5.55,0,0,0-5.62-6.16H251.1a6.85,6.85,0,0,0-6.7,6.16l-10.65,121.7A5.55,5.55,0,0,0,239.37,306.8Z" style="fill:#fff"></path></g><path d="M234.9,287.48l-1.15,13.16a5.55,5.55,0,0,0,5.62,6.16H407.79a6.85,6.85,0,0,0,6.69-6.16l1.16-13.16Z" style="fill:#263238"></path><path d="M234.9,287.48l-1.15,13.16a5.55,5.55,0,0,0,5.62,6.16H407.79a6.85,6.85,0,0,0,6.69-6.16l1.16-13.16Z" style="fill:#fff;opacity:0.7000000000000001"></path><path d="M409.69,283.76H241.5a3,3,0,0,1-3.05-3.34l8.8-100.58a3.71,3.71,0,0,1,3.63-3.34h168.2a3,3,0,0,1,3,3.34l-8.8,100.58A3.71,3.71,0,0,1,409.69,283.76Z" style="fill:#407BFF"></path><path d="M409.69,283.76H241.5a3,3,0,0,1-3.05-3.34l8.8-100.58a3.71,3.71,0,0,1,3.63-3.34h168.2a3,3,0,0,1,3,3.34l-8.8,100.58A3.71,3.71,0,0,1,409.69,283.76Z" style="fill:#fff;opacity:0.7000000000000001"></path><path d="M423.24,172.78h-3.73a5.55,5.55,0,0,1,5.62,6.16l-10.65,121.7a6.85,6.85,0,0,1-6.69,6.16h3.72a6.86,6.86,0,0,0,6.7-6.16l10.65-121.7A5.56,5.56,0,0,0,423.24,172.78Z" style="fill:#263238"></path><path d="M423.24,172.78h-3.73a5.55,5.55,0,0,1,5.62,6.16l-10.65,121.7a6.85,6.85,0,0,1-6.69,6.16h3.72a6.86,6.86,0,0,0,6.7-6.16l10.65-121.7A5.56,5.56,0,0,0,423.24,172.78Z" style="fill:#263238;opacity:0.30000000000000004"></path><g style="opacity:0.30000000000000004"><polygon points="349.74 176.5 356.21 176.5 379.01 283.76 372.54 283.76 349.74 176.5" style="fill:#fff"></polygon><polygon points="385.55 283.76 362.75 176.5 387.05 176.5 409.85 283.76 385.55 283.76" style="fill:#fff"></polygon></g><polygon points="357.65 264.25 268.36 264.25 272.82 213.31 362.11 213.31 357.65 264.25" style="fill:#407BFF"></polygon><polygon points="357.65 264.25 268.36 264.25 272.82 213.31 362.11 213.31 357.65 264.25" style="fill:#fff;opacity:0.9"></polygon><polygon points="273.33 246 271.94 246 273.2 231.55 274.6 231.55 273.33 246" style="fill:#407BFF"></polygon><polygon points="276.32 241.65 274.92 241.65 276.19 227.2 277.58 227.2 276.32 241.65" style="fill:#263238"></polygon><polygon points="279.29 237.46 277.89 237.46 279.16 223.01 280.56 223.01 279.29 237.46" style="fill:#407BFF"></polygon><polygon points="281.66 240.14 280.27 240.14 281.53 225.69 282.93 225.69 281.66 240.14" style="fill:#263238"></polygon><polygon points="283.37 250.39 281.97 250.39 283.24 235.94 284.64 235.94 283.37 250.39" style="fill:#407BFF"></polygon><polygon points="285.73 253.22 284.33 253.22 285.6 238.78 286.99 238.78 285.73 253.22" style="fill:#263238"></polygon><polygon points="287.95 257.62 286.55 257.62 287.82 243.17 289.21 243.17 287.95 257.62" style="fill:#407BFF"></polygon><polygon points="291.57 246 290.18 246 291.44 231.55 292.84 231.55 291.57 246" style="fill:#263238"></polygon><polygon points="294.43 243.17 293.03 243.17 294.29 228.72 295.69 228.72 294.43 243.17" style="fill:#407BFF"></polygon><polygon points="297.17 241.65 295.77 241.65 297.03 227.2 298.43 227.2 297.17 241.65" style="fill:#263238"></polygon><polygon points="299.19 248.22 297.8 248.22 299.06 233.77 300.46 233.77 299.19 248.22" style="fill:#407BFF"></polygon><polygon points="301.61 250.39 300.21 250.39 301.48 235.94 302.88 235.94 301.61 250.39" style="fill:#263238"></polygon><polygon points="304.41 248.22 303.01 248.22 304.27 233.77 305.67 233.77 304.41 248.22" style="fill:#407BFF"></polygon><polygon points="307.21 246 305.81 246 307.07 231.55 308.47 231.55 307.21 246" style="fill:#263238"></polygon><polygon points="310.13 242.31 308.74 242.31 310 227.87 311.4 227.87 310.13 242.31" style="fill:#407BFF"></polygon><polygon points="312.86 240.99 311.46 240.99 312.72 226.55 314.12 226.55 312.86 240.99" style="fill:#263238"></polygon><polygon points="315.02 246 313.62 246 314.89 231.55 316.29 231.55 315.02 246" style="fill:#407BFF"></polygon><polygon points="317.88 243.17 316.48 243.17 317.74 228.72 319.14 228.72 317.88 243.17" style="fill:#263238"></polygon><polygon points="320.67 240.99 319.27 240.99 320.54 226.55 321.94 226.55 320.67 240.99" style="fill:#407BFF"></polygon><polygon points="323.47 238.78 322.07 238.78 323.34 224.33 324.74 224.33 323.47 238.78" style="fill:#263238"></polygon><polygon points="325.82 241.65 324.43 241.65 325.69 227.2 327.09 227.2 325.82 241.65" style="fill:#407BFF"></polygon><polygon points="328.3 243.17 326.9 243.17 328.16 228.72 329.56 228.72 328.3 243.17" style="fill:#263238"></polygon><polygon points="330.65 246 329.26 246 330.52 231.55 331.92 231.55 330.65 246" style="fill:#407BFF"></polygon><polygon points="333.07 248.22 331.67 248.22 332.93 233.77 334.33 233.77 333.07 248.22" style="fill:#263238"></polygon><polygon points="335.35 251.9 333.95 251.9 335.21 237.46 336.61 237.46 335.35 251.9" style="fill:#407BFF"></polygon><polygon points="337.64 255.44 336.25 255.44 337.51 240.99 338.91 240.99 337.64 255.44" style="fill:#263238"></polygon><polygon points="340.62 251.17 339.23 251.17 340.49 236.72 341.89 236.72 340.62 251.17" style="fill:#407BFF"></polygon><polygon points="343.93 243.17 342.53 243.17 343.8 228.72 345.19 228.72 343.93 243.17" style="fill:#263238"></polygon><polygon points="346.8 240.14 345.4 240.14 346.67 225.69 348.06 225.69 346.8 240.14" style="fill:#407BFF"></polygon><polygon points="349.85 235.09 348.45 235.09 349.71 220.64 351.11 220.64 349.85 235.09" style="fill:#263238"></polygon><polygon points="352.01 240.14 350.61 240.14 351.88 225.69 353.27 225.69 352.01 240.14" style="fill:#407BFF"></polygon><polygon points="353.72 250.39 352.32 250.39 353.58 235.94 354.98 235.94 353.72 250.39" style="fill:#263238"></polygon><polygon points="357.03 242.31 355.63 242.31 356.9 227.87 358.3 227.87 357.03 242.31" style="fill:#407BFF"></polygon><path d="M266.28,216.7h-4.69a1.52,1.52,0,0,1-1.54-1.7h0a1.88,1.88,0,0,1,1.84-1.69h4.68a1.52,1.52,0,0,1,1.55,1.69h0A1.89,1.89,0,0,1,266.28,216.7Z" style="fill:#263238"></path><path d="M265.68,223.49H261a1.53,1.53,0,0,1-1.55-1.69h0a1.89,1.89,0,0,1,1.85-1.7H266a1.53,1.53,0,0,1,1.55,1.7h0A1.89,1.89,0,0,1,265.68,223.49Z" style="fill:#407BFF"></path><path d="M265.09,230.29h-4.68a1.53,1.53,0,0,1-1.55-1.7h0a1.89,1.89,0,0,1,1.84-1.7h4.69a1.54,1.54,0,0,1,1.55,1.7h0A1.9,1.9,0,0,1,265.09,230.29Z" style="fill:#407BFF"></path><path d="M264.49,237.08h-4.68a1.53,1.53,0,0,1-1.55-1.7h0a1.89,1.89,0,0,1,1.85-1.7h4.68a1.53,1.53,0,0,1,1.55,1.7h0A1.89,1.89,0,0,1,264.49,237.08Z" style="fill:#407BFF"></path><path d="M263.9,243.87h-4.68a1.53,1.53,0,0,1-1.55-1.7h0a1.89,1.89,0,0,1,1.84-1.7h4.69a1.53,1.53,0,0,1,1.55,1.7h0A1.9,1.9,0,0,1,263.9,243.87Z" style="fill:#407BFF"></path><path d="M263.31,250.66h-4.69a1.54,1.54,0,0,1-1.55-1.7h0a1.9,1.9,0,0,1,1.85-1.69h4.68a1.53,1.53,0,0,1,1.55,1.69h0A1.89,1.89,0,0,1,263.31,250.66Z" style="fill:#407BFF"></path><path d="M262.71,257.45H258a1.53,1.53,0,0,1-1.55-1.69h0a1.89,1.89,0,0,1,1.85-1.7H263a1.53,1.53,0,0,1,1.55,1.7h0A1.89,1.89,0,0,1,262.71,257.45Z" style="fill:#407BFF"></path><path d="M262.12,264.25h-4.68a1.53,1.53,0,0,1-1.55-1.7h0a1.88,1.88,0,0,1,1.84-1.7h4.68a1.53,1.53,0,0,1,1.55,1.7h0A1.88,1.88,0,0,1,262.12,264.25Z" style="fill:#407BFF"></path><path d="M404.32,216.64,402,214.05a.36.36,0,0,0-.51,0l-1.05,1a.36.36,0,0,1-.51,0l-.88-1a.35.35,0,0,0-.5,0l-1.06,1a.35.35,0,0,1-.5,0l-.88-1a.36.36,0,0,0-.51,0l-1.05,1a.36.36,0,0,1-.51,0l-.88-1a.36.36,0,0,0-.51,0l-1.05,1a.35.35,0,0,1-.5,0l-.88-1a.36.36,0,0,0-.51,0l-1.05,1a.36.36,0,0,1-.51,0l-.88-1a.36.36,0,0,0-.51,0l-1.05,1a.35.35,0,0,1-.5,0l-.89-1a.35.35,0,0,0-.5,0l-1,1a.36.36,0,0,1-.51,0l-.88-1a.36.36,0,0,0-.51,0l-1.05,1a.35.35,0,0,1-.5,0l-.89-1a.35.35,0,0,0-.5,0l-1.05,1a.36.36,0,0,1-.51,0l-.88-1a.36.36,0,0,0-.51,0l-1.05,1a.36.36,0,0,1-.51,0l-.88-1a.35.35,0,0,0-.5,0l-1.06,1a.35.35,0,0,1-.5,0l-.88-1a.36.36,0,0,0-.51,0l-2.82,2.59-4.91,56.08,2.37,2.59a.36.36,0,0,0,.51,0l1.05-1a.35.35,0,0,1,.5,0l.89,1a.35.35,0,0,0,.5,0l1.05-1a.36.36,0,0,1,.51,0l.88,1a.36.36,0,0,0,.51,0l1.05-1a.35.35,0,0,1,.5,0l.89,1a.35.35,0,0,0,.5,0l1.05-1a.36.36,0,0,1,.51,0l.88,1a.36.36,0,0,0,.51,0l1-1a.36.36,0,0,1,.51,0l.88,1a.35.35,0,0,0,.5,0l1.06-1a.35.35,0,0,1,.5,0l.88,1a.36.36,0,0,0,.51,0l1.05-1a.36.36,0,0,1,.51,0l.88,1a.36.36,0,0,0,.51,0l1.05-1a.35.35,0,0,1,.5,0l.88,1a.36.36,0,0,0,.51,0l1.05-1a.36.36,0,0,1,.51,0l.88,1a.36.36,0,0,0,.51,0l1.05-1a.35.35,0,0,1,.5,0l.89,1a.35.35,0,0,0,.5,0l1.05-1a.36.36,0,0,1,.51,0l.88,1a.36.36,0,0,0,.51,0l2.82-2.59Z" style="fill:#407BFF"></path><path d="M404.32,216.64,402,214.05a.36.36,0,0,0-.51,0l-1.05,1a.36.36,0,0,1-.51,0l-.88-1a.35.35,0,0,0-.5,0l-1.06,1a.35.35,0,0,1-.5,0l-.88-1a.36.36,0,0,0-.51,0l-1.05,1a.36.36,0,0,1-.51,0l-.88-1a.36.36,0,0,0-.51,0l-1.05,1a.35.35,0,0,1-.5,0l-.88-1a.36.36,0,0,0-.51,0l-1.05,1a.36.36,0,0,1-.51,0l-.88-1a.36.36,0,0,0-.51,0l-1.05,1a.35.35,0,0,1-.5,0l-.89-1a.35.35,0,0,0-.5,0l-1,1a.36.36,0,0,1-.51,0l-.88-1a.36.36,0,0,0-.51,0l-1.05,1a.35.35,0,0,1-.5,0l-.89-1a.35.35,0,0,0-.5,0l-1.05,1a.36.36,0,0,1-.51,0l-.88-1a.36.36,0,0,0-.51,0l-1.05,1a.36.36,0,0,1-.51,0l-.88-1a.35.35,0,0,0-.5,0l-1.06,1a.35.35,0,0,1-.5,0l-.88-1a.36.36,0,0,0-.51,0l-2.82,2.59-4.91,56.08,2.37,2.59a.36.36,0,0,0,.51,0l1.05-1a.35.35,0,0,1,.5,0l.89,1a.35.35,0,0,0,.5,0l1.05-1a.36.36,0,0,1,.51,0l.88,1a.36.36,0,0,0,.51,0l1.05-1a.35.35,0,0,1,.5,0l.89,1a.35.35,0,0,0,.5,0l1.05-1a.36.36,0,0,1,.51,0l.88,1a.36.36,0,0,0,.51,0l1-1a.36.36,0,0,1,.51,0l.88,1a.35.35,0,0,0,.5,0l1.06-1a.35.35,0,0,1,.5,0l.88,1a.36.36,0,0,0,.51,0l1.05-1a.36.36,0,0,1,.51,0l.88,1a.36.36,0,0,0,.51,0l1.05-1a.35.35,0,0,1,.5,0l.88,1a.36.36,0,0,0,.51,0l1.05-1a.36.36,0,0,1,.51,0l.88,1a.36.36,0,0,0,.51,0l1.05-1a.35.35,0,0,1,.5,0l.89,1a.35.35,0,0,0,.5,0l1.05-1a.36.36,0,0,1,.51,0l.88,1a.36.36,0,0,0,.51,0l2.82-2.59Z" style="fill:#fff;opacity:0.9"></path><path d="M379.94,223.53h-7.62a1.62,1.62,0,0,1-1.63-1.79h0a2,2,0,0,1,1.95-1.78h7.61a1.6,1.6,0,0,1,1.63,1.78h0A2,2,0,0,1,379.94,223.53Z" style="fill:#263238"></path><path d="M397,223.53h-2a1.61,1.61,0,0,1-1.63-1.79h0a2,2,0,0,1,1.94-1.78h2a1.62,1.62,0,0,1,1.63,1.78h0A2,2,0,0,1,397,223.53Z" style="fill:#263238"></path><path d="M383.08,230.17H371.74a1.62,1.62,0,0,1-1.63-1.79h0a2,2,0,0,1,1.95-1.78H383.4a1.62,1.62,0,0,1,1.63,1.78h0A2,2,0,0,1,383.08,230.17Z" style="fill:#263238"></path><path d="M396.44,230.17h-2a1.62,1.62,0,0,1-1.63-1.79h0a2,2,0,0,1,1.95-1.78h2a1.62,1.62,0,0,1,1.63,1.78h0A2,2,0,0,1,396.44,230.17Z" style="fill:#263238"></path><path d="M378.77,236.81h-7.61a1.6,1.6,0,0,1-1.63-1.78h0a2,2,0,0,1,1.94-1.79h7.62a1.62,1.62,0,0,1,1.63,1.79h0A2,2,0,0,1,378.77,236.81Z" style="fill:#263238"></path><path d="M395.86,236.81h-2a1.62,1.62,0,0,1-1.63-1.78h0a2,2,0,0,1,2-1.79h2a1.62,1.62,0,0,1,1.63,1.79h0A2,2,0,0,1,395.86,236.81Z" style="fill:#263238"></path><path d="M380.06,243.45h-9.48a1.6,1.6,0,0,1-1.63-1.78h0a2,2,0,0,1,1.94-1.79h9.48a1.61,1.61,0,0,1,1.63,1.79h0A2,2,0,0,1,380.06,243.45Z" style="fill:#263238"></path><path d="M395.28,243.45h-2a1.62,1.62,0,0,1-1.63-1.78h0a2,2,0,0,1,1.94-1.79h2a1.61,1.61,0,0,1,1.63,1.79h0A2,2,0,0,1,395.28,243.45Z" style="fill:#263238"></path><path d="M383.2,250.09H370a1.6,1.6,0,0,1-1.63-1.78h0a2,2,0,0,1,1.94-1.79h13.21a1.62,1.62,0,0,1,1.63,1.79h0A2,2,0,0,1,383.2,250.09Z" style="fill:#263238"></path><path d="M394.7,250.09h-2a1.6,1.6,0,0,1-1.63-1.78h0a2,2,0,0,1,1.94-1.79h2a1.61,1.61,0,0,1,1.63,1.79h0A2,2,0,0,1,394.7,250.09Z" style="fill:#263238"></path><path d="M378.9,256.74h-9.48a1.61,1.61,0,0,1-1.63-1.79h0a2,2,0,0,1,1.94-1.79h9.48a1.62,1.62,0,0,1,1.63,1.79h0A2,2,0,0,1,378.9,256.74Z" style="fill:#263238"></path><path d="M391.67,263h-22.8a1.61,1.61,0,0,1-1.63-1.79h0a2,2,0,0,1,1.94-1.78H392a1.6,1.6,0,0,1,1.63,1.78h0A2,2,0,0,1,391.67,263Z" style="fill:#263238"></path><path d="M394.12,256.74h-2a1.61,1.61,0,0,1-1.63-1.79h0a2,2,0,0,1,1.94-1.79h2a1.61,1.61,0,0,1,1.63,1.79h0A2,2,0,0,1,394.12,256.74Z" style="fill:#263238"></path><path d="M393,269.3h-2a1.6,1.6,0,0,1-1.63-1.78h0a2,2,0,0,1,1.94-1.79h2a1.61,1.61,0,0,1,1.63,1.79h0A2,2,0,0,1,393,269.3Z" style="fill:#263238"></path><g style="opacity:0.30000000000000004"><path d="M379.94,223.53h-7.62a1.62,1.62,0,0,1-1.63-1.79h0a2,2,0,0,1,1.95-1.78h7.61a1.6,1.6,0,0,1,1.63,1.78h0A2,2,0,0,1,379.94,223.53Z" style="fill:#fff"></path><path d="M397,223.53h-2a1.61,1.61,0,0,1-1.63-1.79h0a2,2,0,0,1,1.94-1.78h2a1.62,1.62,0,0,1,1.63,1.78h0A2,2,0,0,1,397,223.53Z" style="fill:#fff"></path><path d="M383.08,230.17H371.74a1.62,1.62,0,0,1-1.63-1.79h0a2,2,0,0,1,1.95-1.78H383.4a1.62,1.62,0,0,1,1.63,1.78h0A2,2,0,0,1,383.08,230.17Z" style="fill:#fff"></path><path d="M396.44,230.17h-2a1.62,1.62,0,0,1-1.63-1.79h0a2,2,0,0,1,1.95-1.78h2a1.62,1.62,0,0,1,1.63,1.78h0A2,2,0,0,1,396.44,230.17Z" style="fill:#fff"></path><path d="M378.77,236.81h-7.61a1.6,1.6,0,0,1-1.63-1.78h0a2,2,0,0,1,1.94-1.79h7.62a1.62,1.62,0,0,1,1.63,1.79h0A2,2,0,0,1,378.77,236.81Z" style="fill:#fff"></path><path d="M395.86,236.81h-2a1.62,1.62,0,0,1-1.63-1.78h0a2,2,0,0,1,2-1.79h2a1.62,1.62,0,0,1,1.63,1.79h0A2,2,0,0,1,395.86,236.81Z" style="fill:#fff"></path><path d="M380.06,243.45h-9.48a1.6,1.6,0,0,1-1.63-1.78h0a2,2,0,0,1,1.94-1.79h9.48a1.61,1.61,0,0,1,1.63,1.79h0A2,2,0,0,1,380.06,243.45Z" style="fill:#fff"></path><path d="M395.28,243.45h-2a1.62,1.62,0,0,1-1.63-1.78h0a2,2,0,0,1,1.94-1.79h2a1.61,1.61,0,0,1,1.63,1.79h0A2,2,0,0,1,395.28,243.45Z" style="fill:#fff"></path><path d="M383.2,250.09H370a1.6,1.6,0,0,1-1.63-1.78h0a2,2,0,0,1,1.94-1.79h13.21a1.62,1.62,0,0,1,1.63,1.79h0A2,2,0,0,1,383.2,250.09Z" style="fill:#fff"></path><path d="M394.7,250.09h-2a1.6,1.6,0,0,1-1.63-1.78h0a2,2,0,0,1,1.94-1.79h2a1.61,1.61,0,0,1,1.63,1.79h0A2,2,0,0,1,394.7,250.09Z" style="fill:#fff"></path><path d="M378.9,256.74h-9.48a1.61,1.61,0,0,1-1.63-1.79h0a2,2,0,0,1,1.94-1.79h9.48a1.62,1.62,0,0,1,1.63,1.79h0A2,2,0,0,1,378.9,256.74Z" style="fill:#fff"></path><path d="M391.67,263h-22.8a1.61,1.61,0,0,1-1.63-1.79h0a2,2,0,0,1,1.94-1.78H392a1.6,1.6,0,0,1,1.63,1.78h0A2,2,0,0,1,391.67,263Z" style="fill:#fff"></path><path d="M394.12,256.74h-2a1.61,1.61,0,0,1-1.63-1.79h0a2,2,0,0,1,1.94-1.79h2a1.61,1.61,0,0,1,1.63,1.79h0A2,2,0,0,1,394.12,256.74Z" style="fill:#fff"></path><path d="M393,269.3h-2a1.6,1.6,0,0,1-1.63-1.78h0a2,2,0,0,1,1.94-1.79h2a1.61,1.61,0,0,1,1.63,1.79h0A2,2,0,0,1,393,269.3Z" style="fill:#fff"></path></g></g><g id="freepik--Calculator--inject-46"><path d="M388.74,149.18H382l-5.3,60.59h6.74a4.3,4.3,0,0,0,4.2-3.86L392.27,153A3.49,3.49,0,0,0,388.74,149.18Z" style="fill:#407BFF"></path><path d="M381.58,209.77H344.24a3.49,3.49,0,0,1-3.53-3.86L345.34,153a4.3,4.3,0,0,1,4.2-3.86h37.34A3.48,3.48,0,0,1,390.4,153l-4.62,52.87A4.3,4.3,0,0,1,381.58,209.77Z" style="fill:#407BFF"></path><path d="M381.58,209.77H344.24a3.49,3.49,0,0,1-3.53-3.86L345.34,153a4.3,4.3,0,0,1,4.2-3.86h37.34A3.48,3.48,0,0,1,390.4,153l-4.62,52.87A4.3,4.3,0,0,1,381.58,209.77Z" style="fill:#fff;opacity:0.2"></path><polygon points="384.61 165.72 349.19 165.72 350.02 156.17 385.44 156.17 384.61 165.72" style="fill:#263238"></polygon><path d="M384.5,174.48a3.46,3.46,0,0,1-3.38,3.11,2.8,2.8,0,0,1-2.83-3.11,3.46,3.46,0,0,1,3.38-3.11A2.8,2.8,0,0,1,384.5,174.48Z" style="fill:#fff"></path><path d="M383.66,184.14a3.47,3.47,0,0,1-3.38,3.11,2.81,2.81,0,0,1-2.84-3.11,3.46,3.46,0,0,1,3.38-3.11A2.8,2.8,0,0,1,383.66,184.14Z" style="fill:#fff"></path><path d="M382.81,193.8a3.46,3.46,0,0,1-3.38,3.1,2.8,2.8,0,0,1-2.83-3.1,3.46,3.46,0,0,1,3.38-3.11A2.8,2.8,0,0,1,382.81,193.8Z" style="fill:#fff"></path><path d="M353.7,174.48a3.46,3.46,0,0,1-3.38,3.11,2.8,2.8,0,0,1-2.83-3.11,3.46,3.46,0,0,1,3.38-3.11A2.8,2.8,0,0,1,353.7,174.48Z" style="fill:#407BFF"></path><path d="M364,174.48a3.46,3.46,0,0,1-3.38,3.11,2.8,2.8,0,0,1-2.84-3.11,3.46,3.46,0,0,1,3.38-3.11A2.8,2.8,0,0,1,364,174.48Z" style="fill:#407BFF"></path><path d="M374.23,174.48a3.45,3.45,0,0,1-3.37,3.11,2.8,2.8,0,0,1-2.84-3.11,3.46,3.46,0,0,1,3.38-3.11A2.79,2.79,0,0,1,374.23,174.48Z" style="fill:#407BFF"></path><path d="M352.86,184.14a3.47,3.47,0,0,1-3.38,3.11,2.81,2.81,0,0,1-2.84-3.11A3.46,3.46,0,0,1,350,181,2.8,2.8,0,0,1,352.86,184.14Z" style="fill:#407BFF"></path><path d="M363.12,184.14a3.46,3.46,0,0,1-3.38,3.11,2.81,2.81,0,0,1-2.83-3.11,3.46,3.46,0,0,1,3.38-3.11A2.8,2.8,0,0,1,363.12,184.14Z" style="fill:#407BFF"></path><path d="M373.39,184.14a3.46,3.46,0,0,1-3.38,3.11,2.81,2.81,0,0,1-2.83-3.11,3.45,3.45,0,0,1,3.37-3.11A2.8,2.8,0,0,1,373.39,184.14Z" style="fill:#407BFF"></path><path d="M352,193.8a3.46,3.46,0,0,1-3.38,3.1,2.8,2.8,0,0,1-2.83-3.1,3.46,3.46,0,0,1,3.38-3.11A2.8,2.8,0,0,1,352,193.8Z" style="fill:#407BFF"></path><path d="M362.28,193.8a3.46,3.46,0,0,1-3.38,3.1,2.8,2.8,0,0,1-2.84-3.1,3.46,3.46,0,0,1,3.38-3.11A2.8,2.8,0,0,1,362.28,193.8Z" style="fill:#407BFF"></path><path d="M372.54,193.8a3.45,3.45,0,0,1-3.37,3.1,2.8,2.8,0,0,1-2.84-3.1,3.46,3.46,0,0,1,3.38-3.11A2.8,2.8,0,0,1,372.54,193.8Z" style="fill:#407BFF"></path><path d="M351.17,203.46a3.46,3.46,0,0,1-3.38,3.1,2.8,2.8,0,0,1-2.84-3.1,3.46,3.46,0,0,1,3.38-3.11A2.8,2.8,0,0,1,351.17,203.46Z" style="fill:#407BFF"></path><path d="M361.43,203.46a3.46,3.46,0,0,1-3.38,3.1,2.8,2.8,0,0,1-2.83-3.1,3.46,3.46,0,0,1,3.38-3.11A2.8,2.8,0,0,1,361.43,203.46Z" style="fill:#407BFF"></path><path d="M371.7,203.46a3.46,3.46,0,0,1-3.38,3.1,2.8,2.8,0,0,1-2.83-3.1,3.45,3.45,0,0,1,3.37-3.11A2.8,2.8,0,0,1,371.7,203.46Z" style="fill:#407BFF"></path><g style="opacity:0.30000000000000004"><path d="M353.7,174.48a3.46,3.46,0,0,1-3.38,3.11,2.8,2.8,0,0,1-2.83-3.11,3.46,3.46,0,0,1,3.38-3.11A2.8,2.8,0,0,1,353.7,174.48Z"></path><path d="M364,174.48a3.46,3.46,0,0,1-3.38,3.11,2.8,2.8,0,0,1-2.84-3.11,3.46,3.46,0,0,1,3.38-3.11A2.8,2.8,0,0,1,364,174.48Z"></path><path d="M374.23,174.48a3.45,3.45,0,0,1-3.37,3.11,2.8,2.8,0,0,1-2.84-3.11,3.46,3.46,0,0,1,3.38-3.11A2.79,2.79,0,0,1,374.23,174.48Z"></path><path d="M352.86,184.14a3.47,3.47,0,0,1-3.38,3.11,2.81,2.81,0,0,1-2.84-3.11A3.46,3.46,0,0,1,350,181,2.8,2.8,0,0,1,352.86,184.14Z"></path><path d="M363.12,184.14a3.46,3.46,0,0,1-3.38,3.11,2.81,2.81,0,0,1-2.83-3.11,3.46,3.46,0,0,1,3.38-3.11A2.8,2.8,0,0,1,363.12,184.14Z"></path><path d="M373.39,184.14a3.46,3.46,0,0,1-3.38,3.11,2.81,2.81,0,0,1-2.83-3.11,3.45,3.45,0,0,1,3.37-3.11A2.8,2.8,0,0,1,373.39,184.14Z"></path><path d="M352,193.8a3.46,3.46,0,0,1-3.38,3.1,2.8,2.8,0,0,1-2.83-3.1,3.46,3.46,0,0,1,3.38-3.11A2.8,2.8,0,0,1,352,193.8Z"></path><path d="M362.28,193.8a3.46,3.46,0,0,1-3.38,3.1,2.8,2.8,0,0,1-2.84-3.1,3.46,3.46,0,0,1,3.38-3.11A2.8,2.8,0,0,1,362.28,193.8Z"></path><path d="M372.54,193.8a3.45,3.45,0,0,1-3.37,3.1,2.8,2.8,0,0,1-2.84-3.1,3.46,3.46,0,0,1,3.38-3.11A2.8,2.8,0,0,1,372.54,193.8Z"></path><path d="M351.17,203.46a3.46,3.46,0,0,1-3.38,3.1,2.8,2.8,0,0,1-2.84-3.1,3.46,3.46,0,0,1,3.38-3.11A2.8,2.8,0,0,1,351.17,203.46Z"></path><path d="M361.43,203.46a3.46,3.46,0,0,1-3.38,3.1,2.8,2.8,0,0,1-2.83-3.1,3.46,3.46,0,0,1,3.38-3.11A2.8,2.8,0,0,1,361.43,203.46Z"></path><path d="M371.7,203.46a3.46,3.46,0,0,1-3.38,3.1,2.8,2.8,0,0,1-2.83-3.1,3.45,3.45,0,0,1,3.37-3.11A2.8,2.8,0,0,1,371.7,203.46Z"></path></g><path d="M382,203.46a3.46,3.46,0,0,1-3.38,3.1,2.8,2.8,0,0,1-2.84-3.1,3.46,3.46,0,0,1,3.38-3.11A2.8,2.8,0,0,1,382,203.46Z" style="fill:#fff"></path></g><g id="freepik--credit-card--inject-46"><path d="M326,171.18l-3.36,38.4a8.43,8.43,0,0,0,6.55-7.36l2.07-23.67A6.78,6.78,0,0,0,326,171.18Z" style="fill:#407BFF"></path><path d="M320.05,209.77H273.63a6.81,6.81,0,0,1-6.89-7.55l2.07-23.67A8.4,8.4,0,0,1,277,171h46.42a6.81,6.81,0,0,1,6.89,7.55l-2.07,23.67A8.4,8.4,0,0,1,320.05,209.77Z" style="fill:#407BFF"></path><path d="M320.05,209.77H273.63a6.81,6.81,0,0,1-6.89-7.55l2.07-23.67A8.4,8.4,0,0,1,277,171h46.42a6.81,6.81,0,0,1,6.89,7.55l-2.07,23.67A8.4,8.4,0,0,1,320.05,209.77Z" style="fill:#fff;opacity:0.2"></path><polygon points="268.22 185.29 329.74 185.29 330.29 179.07 268.76 179.07 268.22 185.29" style="fill:#263238"></polygon><polygon points="277.72 204.55 271.82 204.55 272.06 201.76 277.96 201.76 277.72 204.55" style="fill:#fff"></polygon><polygon points="287.35 204.55 281.45 204.55 281.69 201.76 287.6 201.76 287.35 204.55" style="fill:#fff"></polygon></g></svg>